<?xml version="1.0" encoding="UTF-8"?>
<svg xmlns="http://www.w3.org/2000/svg" xmlns:xlink="http://www.w3.org/1999/xlink" width="27px" height="27px" viewBox="0 0 27 27" version="1.1">
<g id="surface1">
<path style=" stroke:none;fill-rule:nonzero;fill:rgb(0%,0%,0%);fill-opacity:1;" d="M 27 13.582031 C 27 6.125 20.957031 0.0820312 13.5 0.0820312 C 6.042969 0.0820312 0 6.125 0 13.582031 C 0 20.320312 4.9375 25.90625 11.390625 26.917969 L 11.390625 17.484375 L 7.960938 17.484375 L 7.960938 13.582031 L 11.390625 13.582031 L 11.390625 10.609375 C 11.390625 7.226562 13.40625 5.355469 16.492188 5.355469 C 17.964844 5.355469 19.511719 5.621094 19.511719 5.621094 L 19.511719 8.941406 L 17.808594 8.941406 C 16.132812 8.941406 15.609375 9.984375 15.609375 11.050781 L 15.609375 13.582031 L 19.351562 13.582031 L 18.753906 17.484375 L 15.609375 17.484375 L 15.609375 26.917969 C 22.0625 25.90625 27 20.320312 27 13.582031 Z M 27 13.582031 "/>
</g>
</svg>
