<?xml version="1.0" encoding="UTF-8"?>
<svg xmlns="http://www.w3.org/2000/svg" xmlns:xlink="http://www.w3.org/1999/xlink" width="27px" height="27px" viewBox="0 0 27 27" version="1.1">
<g id="surface1">
<path style=" stroke:none;fill-rule:nonzero;fill:rgb(0%,0%,0%);fill-opacity:1;" d="M 13.5 0.539062 C 6.34375 0.539062 0.539062 6.34375 0.539062 13.5 C 0.539062 20.65625 6.34375 26.460938 13.5 26.460938 C 20.65625 26.460938 26.460938 20.65625 26.460938 13.5 C 26.460938 6.34375 20.65625 0.539062 13.5 0.539062 Z M 18.773438 11.15625 C 18.777344 11.265625 18.777344 11.378906 18.777344 11.484375 C 18.777344 14.859375 16.210938 18.75 11.515625 18.75 C 10.128906 18.753906 8.769531 18.355469 7.605469 17.601562 C 7.804688 17.625 8.007812 17.636719 8.214844 17.636719 C 9.410156 17.636719 10.507812 17.230469 11.382812 16.542969 C 10.292969 16.523438 9.335938 15.8125 9 14.773438 C 9.382812 14.847656 9.773438 14.832031 10.152344 14.726562 C 8.960938 14.488281 8.101562 13.441406 8.101562 12.226562 L 8.101562 12.195312 C 8.445312 12.386719 8.839844 12.5 9.257812 12.515625 C 8.136719 11.765625 7.789062 10.269531 8.46875 9.105469 C 9.765625 10.699219 11.679688 11.667969 13.730469 11.773438 C 13.464844 10.648438 13.992188 9.484375 15.011719 8.9375 C 16.03125 8.390625 17.289062 8.597656 18.082031 9.445312 C 18.652344 9.332031 19.199219 9.121094 19.699219 8.824219 C 19.511719 9.417969 19.113281 9.917969 18.578125 10.238281 C 19.085938 10.175781 19.578125 10.042969 20.042969 9.835938 C 19.703125 10.347656 19.269531 10.796875 18.773438 11.15625 Z M 18.773438 11.15625 "/>
</g>
</svg>
