<?xml version="1.0" encoding="UTF-8"?>
<svg xmlns="http://www.w3.org/2000/svg" xmlns:xlink="http://www.w3.org/1999/xlink" width="27px" height="27px" viewBox="0 0 27 27" version="1.1">
<g id="surface1">
<path style=" stroke:none;fill-rule:nonzero;fill:rgb(0%,0%,0%);fill-opacity:1;" d="M 17.089844 6.644531 L 9.910156 6.644531 C 8.109375 6.644531 6.644531 8.109375 6.644531 9.910156 L 6.644531 17.089844 C 6.644531 18.890625 8.109375 20.355469 9.910156 20.355469 L 17.089844 20.355469 C 18.890625 20.355469 20.355469 18.890625 20.355469 17.089844 L 20.355469 9.910156 C 20.355469 8.109375 18.890625 6.644531 17.089844 6.644531 Z M 13.5 17.769531 C 11.148438 17.769531 9.230469 15.851562 9.230469 13.5 C 9.230469 11.148438 11.148438 9.230469 13.5 9.230469 C 15.851562 9.230469 17.769531 11.148438 17.769531 13.5 C 17.769531 15.851562 15.851562 17.769531 13.5 17.769531 Z M 17.882812 10.105469 C 17.335938 10.105469 16.886719 9.65625 16.886719 9.105469 C 16.886719 8.554688 17.335938 8.109375 17.882812 8.109375 C 18.4375 8.109375 18.882812 8.554688 18.882812 9.105469 C 18.882812 9.65625 18.4375 10.105469 17.882812 10.105469 Z M 13.5 10.6875 C 11.949219 10.6875 10.6875 11.949219 10.6875 13.5 C 10.6875 15.050781 11.949219 16.3125 13.5 16.3125 C 15.050781 16.3125 16.3125 15.050781 16.3125 13.5 C 16.3125 11.949219 15.050781 10.6875 13.5 10.6875 Z M 13.5 0.207031 C 6.160156 0.207031 0.207031 6.160156 0.207031 13.5 C 0.207031 20.839844 6.160156 26.792969 13.5 26.792969 C 20.839844 26.792969 26.792969 20.839844 26.792969 13.5 C 26.792969 6.160156 20.839844 0.207031 13.5 0.207031 Z M 21.808594 17.089844 C 21.808594 19.691406 19.691406 21.808594 17.089844 21.808594 L 9.910156 21.808594 C 7.308594 21.808594 5.191406 19.691406 5.191406 17.089844 L 5.191406 9.910156 C 5.191406 7.308594 7.308594 5.191406 9.910156 5.191406 L 17.089844 5.191406 C 19.691406 5.191406 21.808594 7.308594 21.808594 9.910156 Z M 21.808594 17.089844 "/>
</g>
</svg>
