<?xml version="1.0" encoding="UTF-8"?>
<svg xmlns="http://www.w3.org/2000/svg" xmlns:xlink="http://www.w3.org/1999/xlink" width="20px" height="23px" viewBox="0 0 20 23" version="1.1">
<g id="surface1">
<path style=" stroke:none;fill-rule:nonzero;fill:rgb(0%,0%,0%);fill-opacity:1;" d="M 19.785156 17.441406 C 19.039062 15.824219 16.457031 14.070312 16.339844 13.992188 C 16.007812 13.777344 15.664062 13.660156 15.335938 13.660156 C 14.855469 13.660156 14.460938 13.914062 14.222656 14.375 C 13.84375 14.898438 13.375 15.503906 13.261719 15.597656 C 12.382812 16.285156 11.691406 16.207031 10.929688 15.328125 L 6.667969 10.433594 C 5.910156 9.558594 5.839844 8.757812 6.433594 7.75 C 6.519531 7.617188 7.046875 7.078125 7.5 6.640625 C 7.789062 6.445312 7.984375 6.152344 8.070312 5.792969 C 8.1875 5.3125 8.101562 4.75 7.832031 4.203125 C 7.765625 4.078125 6.242188 1.101562 4.832031 0.246094 C 4.570312 0.0859375 4.273438 0.00390625 3.976562 0.00390625 C 3.488281 0.00390625 3.027344 0.21875 2.683594 0.617188 L 1.742188 1.699219 C 0.253906 3.410156 -0.285156 5.351562 0.140625 7.464844 C 0.492188 9.226562 1.527344 11.101562 3.210938 13.039062 L 8.664062 19.304688 C 10.792969 21.753906 12.824219 23 14.699219 23 C 16.082031 23 17.367188 22.324219 18.523438 20.996094 L 19.460938 19.914062 C 20.035156 19.257812 20.164062 18.265625 19.785156 17.441406 Z M 19.785156 17.441406 "/>
</g>
</svg>
