<?xml version="1.0" encoding="UTF-8"?>
<svg xmlns="http://www.w3.org/2000/svg" xmlns:xlink="http://www.w3.org/1999/xlink" width="15px" height="15px" viewBox="0 0 15 15" version="1.1">
<g id="surface1">
<path style=" stroke:none;fill-rule:nonzero;fill:rgb(0%,0%,0%);fill-opacity:1;" d="M 7.5 0.46875 C 3.617188 0.46875 0.46875 3.617188 0.46875 7.5 C 0.46875 11.382812 3.617188 14.53125 7.5 14.53125 C 11.382812 14.53125 14.53125 11.382812 14.53125 7.5 C 14.53125 3.617188 11.382812 0.46875 7.5 0.46875 M 6.421875 9.261719 C 6.730469 9.644531 7.125 9.832031 7.601562 9.832031 C 8.085938 9.832031 8.457031 9.667969 8.714844 9.34375 C 8.855469 9.167969 8.972656 8.90625 9.066406 8.554688 L 10.476562 8.554688 C 10.355469 9.296875 10.046875 9.898438 9.546875 10.363281 C 9.042969 10.828125 8.402344 11.058594 7.621094 11.058594 C 6.652344 11.058594 5.890625 10.746094 5.339844 10.117188 C 4.785156 9.488281 4.507812 8.625 4.507812 7.527344 C 4.507812 6.339844 4.824219 5.421875 5.453125 4.78125 C 6 4.21875 6.699219 3.941406 7.542969 3.941406 C 8.675781 3.941406 9.503906 4.316406 10.027344 5.066406 C 10.316406 5.488281 10.472656 5.910156 10.492188 6.335938 L 9.070312 6.335938 C 8.980469 6.007812 8.863281 5.761719 8.722656 5.597656 C 8.46875 5.300781 8.09375 5.152344 7.597656 5.152344 C 7.089844 5.152344 6.691406 5.363281 6.398438 5.78125 C 6.109375 6.195312 5.960938 6.785156 5.960938 7.546875 C 5.960938 8.3125 6.117188 8.882812 6.421875 9.261719 "/>
</g>
</svg>
