<?xml version="1.0" encoding="UTF-8"?>
<svg xmlns="http://www.w3.org/2000/svg" xmlns:xlink="http://www.w3.org/1999/xlink" width="40px" height="40px" viewBox="0 0 40 40" version="1.1">
<g id="surface1">
<path style=" stroke:none;fill-rule:nonzero;fill:rgb(0%,0%,0%);fill-opacity:1;" d="M 6.925781 10.179688 C 6.925781 8.984375 7.894531 8.015625 9.09375 8.015625 L 30.910156 8.015625 C 31.699219 7.988281 32.441406 8.398438 32.84375 9.078125 C 33.246094 9.757812 33.246094 10.605469 32.84375 11.285156 C 32.441406 11.964844 31.699219 12.375 30.910156 12.347656 L 9.089844 12.347656 C 7.894531 12.347656 6.925781 11.378906 6.925781 10.179688 Z M 33.074219 19.332031 C 33.074219 20.53125 32.105469 21.5 30.90625 21.5 L 9.09375 21.5 C 7.921875 21.460938 6.992188 20.503906 6.992188 19.332031 C 6.992188 18.160156 7.921875 17.199219 9.09375 17.164062 L 30.910156 17.164062 C 32.109375 17.164062 33.078125 18.136719 33.078125 19.332031 Z M 33.074219 28.480469 C 33.074219 29.675781 32.105469 30.648438 30.90625 30.648438 L 9.09375 30.648438 C 8.300781 30.671875 7.5625 30.265625 7.160156 29.585938 C 6.757812 28.902344 6.757812 28.058594 7.160156 27.378906 C 7.5625 26.695312 8.300781 26.289062 9.09375 26.3125 L 30.910156 26.3125 C 32.109375 26.316406 33.078125 27.285156 33.078125 28.480469 Z M 33.074219 28.480469 "/>
</g>
</svg>
