<?xml version="1.0" encoding="UTF-8"?>
<svg xmlns="http://www.w3.org/2000/svg" xmlns:xlink="http://www.w3.org/1999/xlink" width="32px" height="32px" viewBox="0 0 32 32" version="1.1">
<g id="surface1">
<path style=" stroke:none;fill-rule:nonzero;fill:rgb(0%,0%,0%);fill-opacity:1;" d="M 16.015625 13.1875 L 26.585938 2.644531 C 27.363281 1.863281 28.632812 1.863281 29.414062 2.644531 C 30.191406 3.429688 30.1875 4.695312 29.410156 5.476562 L 18.84375 16.015625 L 29.402344 26.5625 C 30.1875 27.34375 30.1875 28.609375 29.40625 29.390625 C 28.625 30.171875 27.359375 30.171875 26.578125 29.390625 L 16.015625 18.839844 L 5.441406 29.375 C 4.660156 30.15625 3.394531 30.152344 2.613281 29.371094 C 1.835938 28.589844 1.835938 27.324219 2.617188 26.542969 L 13.183594 16.011719 L 2.628906 5.464844 C 1.847656 4.6875 1.847656 3.417969 2.628906 2.636719 C 3.410156 1.855469 4.675781 1.855469 5.457031 2.636719 Z M 16.015625 13.1875 "/>
</g>
</svg>
