<?xml version="1.0" encoding="UTF-8"?>
<svg xmlns="http://www.w3.org/2000/svg" xmlns:xlink="http://www.w3.org/1999/xlink" width="40px" height="40px" viewBox="0 0 40 40" version="1.1">
<g id="surface1">
<path style=" stroke:none;fill-rule:nonzero;fill:rgb(0%,0%,0%);fill-opacity:1;" d="M 20.019531 16.480469 L 33.230469 3.304688 C 34.207031 2.332031 35.789062 2.332031 36.765625 3.308594 C 37.742188 4.285156 37.738281 5.871094 36.761719 6.84375 L 23.554688 20.015625 L 36.753906 33.203125 C 37.730469 34.179688 37.734375 35.761719 36.757812 36.738281 C 35.78125 37.714844 34.199219 37.714844 33.222656 36.738281 L 20.015625 23.546875 L 6.804688 36.71875 C 5.828125 37.695312 4.246094 37.691406 3.269531 36.714844 C 2.292969 35.738281 2.296875 34.15625 3.273438 33.179688 L 16.476562 20.011719 L 3.285156 6.832031 C 2.308594 5.855469 2.308594 4.273438 3.285156 3.296875 C 4.261719 2.320312 5.84375 2.316406 6.820312 3.292969 Z M 20.019531 16.480469 "/>
</g>
</svg>
