<?xml version="1.0" encoding="UTF-8"?>
<svg xmlns="http://www.w3.org/2000/svg" xmlns:xlink="http://www.w3.org/1999/xlink" width="27px" height="27px" viewBox="0 0 27 27" version="1.1">
<g id="surface1">
<path style=" stroke:none;fill-rule:nonzero;fill:rgb(0%,0%,0%);fill-opacity:1;" d="M 13.5 0 C 6.042969 0 0 6.042969 0 13.5 C 0 20.957031 6.042969 27 13.5 27 C 20.957031 27 27 20.957031 27 13.5 C 27 6.042969 20.957031 0 13.5 0 Z M 16.890625 13.5 C 16.890625 16.886719 14.132812 19.644531 10.746094 19.644531 C 7.359375 19.644531 4.601562 16.886719 4.601562 13.5 C 4.601562 10.113281 7.359375 7.355469 10.746094 7.355469 C 12.113281 7.355469 13.40625 7.796875 14.492188 8.628906 L 13.066406 10.484375 C 12.394531 9.96875 11.59375 9.695312 10.746094 9.695312 C 8.648438 9.695312 6.941406 11.402344 6.941406 13.5 C 6.941406 15.597656 8.648438 17.304688 10.746094 17.304688 C 12.4375 17.304688 13.871094 16.195312 14.367188 14.671875 L 10.746094 14.671875 L 10.746094 12.328125 L 16.890625 12.328125 Z M 23.359375 14.265625 L 21.597656 14.265625 L 21.597656 16.023438 L 20.070312 16.023438 L 20.070312 14.265625 L 18.308594 14.265625 L 18.308594 12.734375 L 20.070312 12.734375 L 20.070312 10.976562 L 21.597656 10.976562 L 21.597656 12.734375 L 23.359375 12.734375 Z M 23.359375 14.265625 "/>
</g>
</svg>
